<mxfile host="app.diagrams.net" agent="Mozilla/5.0 (Macintosh; Intel Mac OS X 10_15_7) AppleWebKit/605.1.15 (KHTML, like Gecko) Version/17.6 Safari/605.1.15" version="24.7.8">
  <diagram name="Page-1" id="lMuInEzf9J7f7P52-7Td">
    <mxGraphModel dx="3633" dy="2900" grid="1" gridSize="10" guides="1" tooltips="1" connect="1" arrows="1" fold="1" page="1" pageScale="1" pageWidth="827" pageHeight="1169" background="#F8CECC" math="0" shadow="0">
      <root>
        <mxCell id="0" />
        <mxCell id="1" parent="0" />
        <mxCell id="CO1nuGFgLBDNanquge2X-4" value="" style="edgeStyle=orthogonalEdgeStyle;rounded=0;orthogonalLoop=1;jettySize=auto;html=1;" edge="1" parent="1" target="CO1nuGFgLBDNanquge2X-8">
          <mxGeometry relative="1" as="geometry">
            <mxPoint x="410" y="330" as="sourcePoint" />
            <mxPoint x="410" y="280" as="targetPoint" />
          </mxGeometry>
        </mxCell>
        <mxCell id="CO1nuGFgLBDNanquge2X-12" value="" style="edgeStyle=orthogonalEdgeStyle;rounded=0;orthogonalLoop=1;jettySize=auto;html=1;" edge="1" parent="1" source="CO1nuGFgLBDNanquge2X-5" target="CO1nuGFgLBDNanquge2X-13">
          <mxGeometry relative="1" as="geometry">
            <mxPoint x="210" y="370" as="targetPoint" />
          </mxGeometry>
        </mxCell>
        <mxCell id="CO1nuGFgLBDNanquge2X-18" value="" style="edgeStyle=orthogonalEdgeStyle;rounded=0;orthogonalLoop=1;jettySize=auto;html=1;" edge="1" parent="1" source="CO1nuGFgLBDNanquge2X-5" target="CO1nuGFgLBDNanquge2X-17">
          <mxGeometry relative="1" as="geometry" />
        </mxCell>
        <mxCell id="CO1nuGFgLBDNanquge2X-21" style="edgeStyle=orthogonalEdgeStyle;rounded=0;orthogonalLoop=1;jettySize=auto;html=1;" edge="1" parent="1" source="CO1nuGFgLBDNanquge2X-5" target="CO1nuGFgLBDNanquge2X-22">
          <mxGeometry relative="1" as="geometry">
            <mxPoint x="550" y="370" as="targetPoint" />
          </mxGeometry>
        </mxCell>
        <mxCell id="CO1nuGFgLBDNanquge2X-5" value="LOGin" style="rounded=0;whiteSpace=wrap;html=1;fillColor=#d80073;strokeColor=#A50040;fontColor=#ffffff;" vertex="1" parent="1">
          <mxGeometry x="350" y="340" width="120" height="60" as="geometry" />
        </mxCell>
        <mxCell id="CO1nuGFgLBDNanquge2X-8" value="ID" style="ellipse;whiteSpace=wrap;html=1;fillColor=#1ba1e2;strokeColor=#006EAF;fontColor=#ffffff;" vertex="1" parent="1">
          <mxGeometry x="350" y="140" width="120" height="80" as="geometry" />
        </mxCell>
        <mxCell id="CO1nuGFgLBDNanquge2X-13" value="USER" style="ellipse;whiteSpace=wrap;html=1;fillColor=#1ba1e2;strokeColor=#006EAF;fontColor=#ffffff;" vertex="1" parent="1">
          <mxGeometry x="120" y="330" width="120" height="80" as="geometry" />
        </mxCell>
        <mxCell id="CO1nuGFgLBDNanquge2X-17" value="" style="shape=waypoint;sketch=0;size=6;pointerEvents=1;points=[];fillColor=default;resizable=0;rotatable=0;perimeter=centerPerimeter;snapToPoint=1;rounded=0;" vertex="1" parent="1">
          <mxGeometry x="400" y="500" width="20" height="20" as="geometry" />
        </mxCell>
        <mxCell id="CO1nuGFgLBDNanquge2X-19" value="EMAIL &amp;amp; PASSWORD" style="ellipse;whiteSpace=wrap;html=1;fillColor=#1ba1e2;fontColor=#ffffff;strokeColor=#006EAF;" vertex="1" parent="1">
          <mxGeometry x="354" y="510" width="120" height="80" as="geometry" />
        </mxCell>
        <mxCell id="CO1nuGFgLBDNanquge2X-25" value="" style="edgeStyle=orthogonalEdgeStyle;rounded=0;orthogonalLoop=1;jettySize=auto;html=1;" edge="1" parent="1" source="CO1nuGFgLBDNanquge2X-22" target="CO1nuGFgLBDNanquge2X-24">
          <mxGeometry relative="1" as="geometry" />
        </mxCell>
        <mxCell id="CO1nuGFgLBDNanquge2X-22" value="STATUS" style="ellipse;whiteSpace=wrap;html=1;fillColor=#1ba1e2;fontColor=#ffffff;strokeColor=#006EAF;" vertex="1" parent="1">
          <mxGeometry x="580" y="330" width="120" height="80" as="geometry" />
        </mxCell>
        <mxCell id="CO1nuGFgLBDNanquge2X-24" value="" style="shape=waypoint;sketch=0;size=6;pointerEvents=1;points=[];fillColor=default;resizable=0;rotatable=0;perimeter=centerPerimeter;snapToPoint=1;" vertex="1" parent="1">
          <mxGeometry x="830" y="360" width="20" height="20" as="geometry" />
        </mxCell>
        <mxCell id="CO1nuGFgLBDNanquge2X-28" value="" style="edgeStyle=orthogonalEdgeStyle;rounded=0;orthogonalLoop=1;jettySize=auto;html=1;" edge="1" parent="1" source="CO1nuGFgLBDNanquge2X-26" target="CO1nuGFgLBDNanquge2X-27">
          <mxGeometry relative="1" as="geometry" />
        </mxCell>
        <mxCell id="CO1nuGFgLBDNanquge2X-26" value="HAS" style="rhombus;whiteSpace=wrap;html=1;fillColor=#331A00;fontColor=#ffffff;strokeColor=#6D1F00;" vertex="1" parent="1">
          <mxGeometry x="840" y="325" width="160" height="90" as="geometry" />
        </mxCell>
        <mxCell id="CO1nuGFgLBDNanquge2X-30" value="" style="edgeStyle=orthogonalEdgeStyle;rounded=0;orthogonalLoop=1;jettySize=auto;html=1;" edge="1" parent="1" source="CO1nuGFgLBDNanquge2X-27" target="CO1nuGFgLBDNanquge2X-29">
          <mxGeometry relative="1" as="geometry" />
        </mxCell>
        <mxCell id="CO1nuGFgLBDNanquge2X-33" value="" style="edgeStyle=orthogonalEdgeStyle;rounded=0;orthogonalLoop=1;jettySize=auto;html=1;" edge="1" parent="1" source="CO1nuGFgLBDNanquge2X-27" target="CO1nuGFgLBDNanquge2X-32">
          <mxGeometry relative="1" as="geometry" />
        </mxCell>
        <mxCell id="CO1nuGFgLBDNanquge2X-27" value="ADMIN" style="whiteSpace=wrap;html=1;fillColor=#d80073;strokeColor=#A50040;fontColor=#ffffff;" vertex="1" parent="1">
          <mxGeometry x="1100" y="340" width="120" height="60" as="geometry" />
        </mxCell>
        <mxCell id="CO1nuGFgLBDNanquge2X-29" value="" style="shape=waypoint;sketch=0;size=6;pointerEvents=1;points=[];fillColor=default;resizable=0;rotatable=0;perimeter=centerPerimeter;snapToPoint=1;" vertex="1" parent="1">
          <mxGeometry x="1150" y="220" width="20" height="20" as="geometry" />
        </mxCell>
        <mxCell id="CO1nuGFgLBDNanquge2X-31" value="ID" style="ellipse;whiteSpace=wrap;html=1;fillColor=#1ba1e2;strokeColor=#006EAF;fontColor=#ffffff;" vertex="1" parent="1">
          <mxGeometry x="1100" y="150" width="120" height="80" as="geometry" />
        </mxCell>
        <mxCell id="CO1nuGFgLBDNanquge2X-32" value="" style="shape=waypoint;sketch=0;size=6;pointerEvents=1;points=[];fillColor=default;resizable=0;rotatable=0;perimeter=centerPerimeter;snapToPoint=1;" vertex="1" parent="1">
          <mxGeometry x="1350" y="360" width="20" height="20" as="geometry" />
        </mxCell>
        <mxCell id="CO1nuGFgLBDNanquge2X-34" value="STATUS" style="ellipse;whiteSpace=wrap;html=1;fillColor=#1ba1e2;fontColor=#ffffff;strokeColor=#006EAF;" vertex="1" parent="1">
          <mxGeometry x="1360" y="330" width="120" height="80" as="geometry" />
        </mxCell>
        <mxCell id="CO1nuGFgLBDNanquge2X-35" value="" style="shape=waypoint;sketch=0;size=6;pointerEvents=1;points=[];fillColor=default;resizable=0;rotatable=0;perimeter=centerPerimeter;snapToPoint=1;" vertex="1" parent="1">
          <mxGeometry x="1150" y="500" width="20" height="20" as="geometry" />
        </mxCell>
        <mxCell id="CO1nuGFgLBDNanquge2X-37" value="USER" style="ellipse;whiteSpace=wrap;html=1;fillColor=#1ba1e2;fontColor=#ffffff;strokeColor=#006EAF;" vertex="1" parent="1">
          <mxGeometry x="930" y="180" width="120" height="80" as="geometry" />
        </mxCell>
        <mxCell id="CO1nuGFgLBDNanquge2X-41" value="" style="endArrow=classic;html=1;rounded=0;exitX=1;exitY=0;exitDx=0;exitDy=0;" edge="1" parent="1" source="CO1nuGFgLBDNanquge2X-27">
          <mxGeometry width="50" height="50" relative="1" as="geometry">
            <mxPoint x="1130" y="470" as="sourcePoint" />
            <mxPoint x="1290" y="250" as="targetPoint" />
          </mxGeometry>
        </mxCell>
        <mxCell id="CO1nuGFgLBDNanquge2X-42" value="MOBILE NUMBER" style="ellipse;whiteSpace=wrap;html=1;fillColor=#1ba1e2;fontColor=#ffffff;strokeColor=#006EAF;" vertex="1" parent="1">
          <mxGeometry x="1250" y="170" width="120" height="80" as="geometry" />
        </mxCell>
        <mxCell id="CO1nuGFgLBDNanquge2X-43" value="" style="endArrow=classic;html=1;rounded=0;exitX=0;exitY=0;exitDx=0;exitDy=0;entryX=1;entryY=1;entryDx=0;entryDy=0;" edge="1" parent="1" source="CO1nuGFgLBDNanquge2X-27" target="CO1nuGFgLBDNanquge2X-37">
          <mxGeometry width="50" height="50" relative="1" as="geometry">
            <mxPoint x="1020" y="540" as="sourcePoint" />
            <mxPoint x="960" y="440" as="targetPoint" />
            <Array as="points" />
          </mxGeometry>
        </mxCell>
        <mxCell id="CO1nuGFgLBDNanquge2X-44" value="" style="endArrow=classic;html=1;rounded=0;exitX=0.5;exitY=1;exitDx=0;exitDy=0;" edge="1" parent="1" source="CO1nuGFgLBDNanquge2X-27">
          <mxGeometry width="50" height="50" relative="1" as="geometry">
            <mxPoint x="1120" y="650" as="sourcePoint" />
            <mxPoint x="1160" y="580" as="targetPoint" />
          </mxGeometry>
        </mxCell>
        <mxCell id="CO1nuGFgLBDNanquge2X-45" value="MANAGE" style="rhombus;whiteSpace=wrap;html=1;fillColor=#331A00;fontColor=#ffffff;strokeColor=#6D1F00;" vertex="1" parent="1">
          <mxGeometry x="1075" y="580" width="170" height="80" as="geometry" />
        </mxCell>
        <mxCell id="CO1nuGFgLBDNanquge2X-46" value="" style="endArrow=classic;html=1;rounded=0;entryX=1;entryY=0.5;entryDx=0;entryDy=0;" edge="1" parent="1" target="CO1nuGFgLBDNanquge2X-47">
          <mxGeometry width="50" height="50" relative="1" as="geometry">
            <mxPoint x="1075" y="619.5" as="sourcePoint" />
            <mxPoint x="925" y="619.5" as="targetPoint" />
          </mxGeometry>
        </mxCell>
        <mxCell id="CO1nuGFgLBDNanquge2X-47" value="CUSTOMERS" style="rounded=0;whiteSpace=wrap;html=1;fillColor=#d80073;strokeColor=#A50040;fontColor=#ffffff;" vertex="1" parent="1">
          <mxGeometry x="800" y="590" width="120" height="60" as="geometry" />
        </mxCell>
        <mxCell id="CO1nuGFgLBDNanquge2X-49" value="" style="endArrow=classic;html=1;rounded=0;entryX=1;entryY=1;entryDx=0;entryDy=0;exitX=0;exitY=0;exitDx=0;exitDy=0;" edge="1" parent="1" source="CO1nuGFgLBDNanquge2X-47" target="CO1nuGFgLBDNanquge2X-5">
          <mxGeometry width="50" height="50" relative="1" as="geometry">
            <mxPoint x="680" y="920" as="sourcePoint" />
            <mxPoint x="1050" y="600" as="targetPoint" />
          </mxGeometry>
        </mxCell>
        <mxCell id="CO1nuGFgLBDNanquge2X-50" value="" style="endArrow=classic;html=1;rounded=0;exitX=1;exitY=0.5;exitDx=0;exitDy=0;" edge="1" parent="1" source="CO1nuGFgLBDNanquge2X-45">
          <mxGeometry width="50" height="50" relative="1" as="geometry">
            <mxPoint x="1250" y="620" as="sourcePoint" />
            <mxPoint x="1410" y="620" as="targetPoint" />
          </mxGeometry>
        </mxCell>
        <mxCell id="CO1nuGFgLBDNanquge2X-51" value="DELIVERY PERSON" style="rounded=0;whiteSpace=wrap;html=1;fillColor=#d80073;strokeColor=#A50040;fontColor=#ffffff;" vertex="1" parent="1">
          <mxGeometry x="1410" y="590" width="120" height="60" as="geometry" />
        </mxCell>
        <mxCell id="CO1nuGFgLBDNanquge2X-54" value="" style="endArrow=classic;html=1;rounded=0;exitX=0;exitY=0;exitDx=0;exitDy=0;entryX=1;entryY=1;entryDx=0;entryDy=0;" edge="1" parent="1" source="CO1nuGFgLBDNanquge2X-51" target="CO1nuGFgLBDNanquge2X-5">
          <mxGeometry width="50" height="50" relative="1" as="geometry">
            <mxPoint x="930" y="650" as="sourcePoint" />
            <mxPoint x="980" y="600" as="targetPoint" />
          </mxGeometry>
        </mxCell>
        <mxCell id="CO1nuGFgLBDNanquge2X-55" value="" style="endArrow=classic;html=1;rounded=0;exitX=0;exitY=1;exitDx=0;exitDy=0;" edge="1" parent="1" source="CO1nuGFgLBDNanquge2X-47">
          <mxGeometry width="50" height="50" relative="1" as="geometry">
            <mxPoint x="880" y="770" as="sourcePoint" />
            <mxPoint x="710" y="760" as="targetPoint" />
          </mxGeometry>
        </mxCell>
        <mxCell id="CO1nuGFgLBDNanquge2X-56" value="ADD ITEM" style="ellipse;whiteSpace=wrap;html=1;aspect=fixed;fillColor=#60a917;strokeColor=#2D7600;fontColor=#ffffff;" vertex="1" parent="1">
          <mxGeometry x="660" y="760" width="80" height="80" as="geometry" />
        </mxCell>
        <mxCell id="CO1nuGFgLBDNanquge2X-57" value="" style="endArrow=classic;html=1;rounded=0;exitX=1;exitY=1;exitDx=0;exitDy=0;entryX=0.375;entryY=0;entryDx=0;entryDy=0;entryPerimeter=0;" edge="1" parent="1" source="CO1nuGFgLBDNanquge2X-47" target="CO1nuGFgLBDNanquge2X-58">
          <mxGeometry width="50" height="50" relative="1" as="geometry">
            <mxPoint x="840" y="820" as="sourcePoint" />
            <mxPoint x="1030" y="750" as="targetPoint" />
          </mxGeometry>
        </mxCell>
        <mxCell id="CO1nuGFgLBDNanquge2X-58" value="REMOVE ITEM" style="ellipse;whiteSpace=wrap;html=1;aspect=fixed;fillColor=#60a917;strokeColor=#2D7600;fontColor=#ffffff;" vertex="1" parent="1">
          <mxGeometry x="1010" y="760" width="80" height="80" as="geometry" />
        </mxCell>
        <mxCell id="CO1nuGFgLBDNanquge2X-59" value="" style="endArrow=classic;html=1;rounded=0;" edge="1" parent="1" target="CO1nuGFgLBDNanquge2X-64">
          <mxGeometry width="50" height="50" relative="1" as="geometry">
            <mxPoint x="860" y="650" as="sourcePoint" />
            <mxPoint x="860" y="1001.3333333333334" as="targetPoint" />
          </mxGeometry>
        </mxCell>
        <mxCell id="CO1nuGFgLBDNanquge2X-62" value="" style="endArrow=none;html=1;rounded=0;exitX=0;exitY=0.5;exitDx=0;exitDy=0;" edge="1" parent="1" source="CO1nuGFgLBDNanquge2X-47">
          <mxGeometry width="50" height="50" relative="1" as="geometry">
            <mxPoint x="880" y="810" as="sourcePoint" />
            <mxPoint y="620" as="targetPoint" />
          </mxGeometry>
        </mxCell>
        <mxCell id="CO1nuGFgLBDNanquge2X-63" value="" style="endArrow=classic;html=1;rounded=0;" edge="1" parent="1">
          <mxGeometry width="50" height="50" relative="1" as="geometry">
            <mxPoint y="620" as="sourcePoint" />
            <mxPoint y="930" as="targetPoint" />
          </mxGeometry>
        </mxCell>
        <mxCell id="CO1nuGFgLBDNanquge2X-64" value="TRACKS" style="rhombus;whiteSpace=wrap;html=1;fillColor=#ff6a00;" vertex="1" parent="1">
          <mxGeometry x="820" y="961.3333333333333" width="80" height="80" as="geometry" />
        </mxCell>
        <mxCell id="CO1nuGFgLBDNanquge2X-65" value="" style="endArrow=none;html=1;rounded=0;entryX=0.5;entryY=1;entryDx=0;entryDy=0;" edge="1" parent="1" target="CO1nuGFgLBDNanquge2X-64">
          <mxGeometry width="50" height="50" relative="1" as="geometry">
            <mxPoint x="860" y="1080" as="sourcePoint" />
            <mxPoint x="820" y="1050" as="targetPoint" />
          </mxGeometry>
        </mxCell>
        <mxCell id="CO1nuGFgLBDNanquge2X-66" value="SUPLMENTS" style="rounded=0;whiteSpace=wrap;html=1;fillColor=#d80073;strokeColor=#A50040;fontColor=#ffffff;" vertex="1" parent="1">
          <mxGeometry x="800" y="1080" width="120" height="60" as="geometry" />
        </mxCell>
        <mxCell id="CO1nuGFgLBDNanquge2X-67" value="" style="endArrow=classic;html=1;rounded=0;exitX=0.5;exitY=1;exitDx=0;exitDy=0;" edge="1" parent="1" source="CO1nuGFgLBDNanquge2X-66">
          <mxGeometry width="50" height="50" relative="1" as="geometry">
            <mxPoint x="710" y="1120" as="sourcePoint" />
            <mxPoint x="860" y="1360" as="targetPoint" />
          </mxGeometry>
        </mxCell>
        <mxCell id="CO1nuGFgLBDNanquge2X-68" value="" style="endArrow=classic;html=1;rounded=0;" edge="1" parent="1">
          <mxGeometry width="50" height="50" relative="1" as="geometry">
            <mxPoint x="860" y="1140" as="sourcePoint" />
            <mxPoint x="610" y="1250" as="targetPoint" />
          </mxGeometry>
        </mxCell>
        <mxCell id="CO1nuGFgLBDNanquge2X-69" value="" style="endArrow=classic;html=1;rounded=0;" edge="1" parent="1">
          <mxGeometry width="50" height="50" relative="1" as="geometry">
            <mxPoint x="860" y="1140" as="sourcePoint" />
            <mxPoint x="760" y="1260" as="targetPoint" />
          </mxGeometry>
        </mxCell>
        <mxCell id="CO1nuGFgLBDNanquge2X-70" value="" style="endArrow=classic;html=1;rounded=0;exitX=0.5;exitY=1;exitDx=0;exitDy=0;" edge="1" parent="1" source="CO1nuGFgLBDNanquge2X-66">
          <mxGeometry width="50" height="50" relative="1" as="geometry">
            <mxPoint x="870" y="1150" as="sourcePoint" />
            <mxPoint x="950" y="1260" as="targetPoint" />
          </mxGeometry>
        </mxCell>
        <mxCell id="CO1nuGFgLBDNanquge2X-71" value="" style="endArrow=classic;html=1;rounded=0;" edge="1" parent="1">
          <mxGeometry width="50" height="50" relative="1" as="geometry">
            <mxPoint x="860" y="1140" as="sourcePoint" />
            <mxPoint x="1090" y="1240" as="targetPoint" />
          </mxGeometry>
        </mxCell>
        <mxCell id="CO1nuGFgLBDNanquge2X-73" value="ID" style="ellipse;whiteSpace=wrap;html=1;fillColor=#1ba1e2;fontColor=#ffffff;strokeColor=#006EAF;" vertex="1" parent="1">
          <mxGeometry x="540" y="1250" width="120" height="80" as="geometry" />
        </mxCell>
        <mxCell id="CO1nuGFgLBDNanquge2X-74" value="TO CITY" style="ellipse;whiteSpace=wrap;html=1;fillColor=#1ba1e2;fontColor=#ffffff;strokeColor=#006EAF;" vertex="1" parent="1">
          <mxGeometry x="700" y="1260" width="120" height="80" as="geometry" />
        </mxCell>
        <mxCell id="CO1nuGFgLBDNanquge2X-75" value="FROM CITY" style="ellipse;whiteSpace=wrap;html=1;fillColor=#1ba1e2;fontColor=#ffffff;strokeColor=#006EAF;" vertex="1" parent="1">
          <mxGeometry x="890" y="1260" width="120" height="80" as="geometry" />
        </mxCell>
        <mxCell id="CO1nuGFgLBDNanquge2X-76" value="DATE" style="ellipse;whiteSpace=wrap;html=1;fillColor=#1ba1e2;fontColor=#ffffff;strokeColor=#006EAF;" vertex="1" parent="1">
          <mxGeometry x="1040" y="1240" width="120" height="80" as="geometry" />
        </mxCell>
        <mxCell id="CO1nuGFgLBDNanquge2X-77" value="WEIGHT" style="ellipse;whiteSpace=wrap;html=1;fillColor=#1ba1e2;fontColor=#ffffff;strokeColor=#006EAF;" vertex="1" parent="1">
          <mxGeometry x="800" y="1360" width="120" height="80" as="geometry" />
        </mxCell>
        <mxCell id="CO1nuGFgLBDNanquge2X-78" value="ITEM" style="rounded=0;whiteSpace=wrap;html=1;fillColor=#d80073;strokeColor=#A50040;fontColor=#ffffff;" vertex="1" parent="1">
          <mxGeometry x="-60" y="930" width="120" height="60" as="geometry" />
        </mxCell>
        <mxCell id="CO1nuGFgLBDNanquge2X-79" value="" style="endArrow=classic;html=1;rounded=0;exitX=0.5;exitY=1;exitDx=0;exitDy=0;" edge="1" parent="1" source="CO1nuGFgLBDNanquge2X-78">
          <mxGeometry width="50" height="50" relative="1" as="geometry">
            <mxPoint x="220" y="1030" as="sourcePoint" />
            <mxPoint x="-120" y="1170" as="targetPoint" />
          </mxGeometry>
        </mxCell>
        <mxCell id="CO1nuGFgLBDNanquge2X-80" value="" style="endArrow=classic;html=1;rounded=0;" edge="1" parent="1">
          <mxGeometry width="50" height="50" relative="1" as="geometry">
            <mxPoint y="990" as="sourcePoint" />
            <mxPoint x="350" y="1210" as="targetPoint" />
          </mxGeometry>
        </mxCell>
        <mxCell id="CO1nuGFgLBDNanquge2X-81" value="" style="endArrow=classic;html=1;rounded=0;exitX=0.5;exitY=1;exitDx=0;exitDy=0;" edge="1" parent="1" source="CO1nuGFgLBDNanquge2X-78">
          <mxGeometry width="50" height="50" relative="1" as="geometry">
            <mxPoint x="10" y="1000" as="sourcePoint" />
            <mxPoint x="-360" y="1210" as="targetPoint" />
          </mxGeometry>
        </mxCell>
        <mxCell id="CO1nuGFgLBDNanquge2X-82" value="" style="endArrow=classic;html=1;rounded=0;" edge="1" parent="1">
          <mxGeometry width="50" height="50" relative="1" as="geometry">
            <mxPoint y="990" as="sourcePoint" />
            <mxPoint x="120" y="1170" as="targetPoint" />
          </mxGeometry>
        </mxCell>
        <mxCell id="CO1nuGFgLBDNanquge2X-84" value="TYPE" style="ellipse;whiteSpace=wrap;html=1;fillColor=#1ba1e2;fontColor=#ffffff;strokeColor=#006EAF;" vertex="1" parent="1">
          <mxGeometry x="-420" y="1210" width="120" height="80" as="geometry" />
        </mxCell>
        <mxCell id="CO1nuGFgLBDNanquge2X-85" value="ID" style="ellipse;whiteSpace=wrap;html=1;fillColor=#1ba1e2;fontColor=#ffffff;strokeColor=#006EAF;" vertex="1" parent="1">
          <mxGeometry x="-180" y="1170" width="120" height="80" as="geometry" />
        </mxCell>
        <mxCell id="CO1nuGFgLBDNanquge2X-86" value="CODE" style="ellipse;whiteSpace=wrap;html=1;fillColor=#1ba1e2;fontColor=#ffffff;strokeColor=#006EAF;" vertex="1" parent="1">
          <mxGeometry x="60" y="1170" width="120" height="80" as="geometry" />
        </mxCell>
        <mxCell id="CO1nuGFgLBDNanquge2X-87" value="WEIGHT" style="ellipse;whiteSpace=wrap;html=1;fillColor=#1ba1e2;fontColor=#ffffff;strokeColor=#006EAF;" vertex="1" parent="1">
          <mxGeometry x="310" y="1210" width="120" height="80" as="geometry" />
        </mxCell>
        <mxCell id="CO1nuGFgLBDNanquge2X-89" value="" style="endArrow=classic;html=1;rounded=0;exitX=0.5;exitY=1;exitDx=0;exitDy=0;" edge="1" parent="1" source="CO1nuGFgLBDNanquge2X-51">
          <mxGeometry width="50" height="50" relative="1" as="geometry">
            <mxPoint x="1520" y="720" as="sourcePoint" />
            <mxPoint x="1470" y="1030" as="targetPoint" />
          </mxGeometry>
        </mxCell>
        <mxCell id="CO1nuGFgLBDNanquge2X-90" value="" style="endArrow=classic;html=1;rounded=0;exitX=0.5;exitY=1;exitDx=0;exitDy=0;" edge="1" parent="1" source="CO1nuGFgLBDNanquge2X-51">
          <mxGeometry width="50" height="50" relative="1" as="geometry">
            <mxPoint x="1480" y="660" as="sourcePoint" />
            <mxPoint x="1910" y="970" as="targetPoint" />
          </mxGeometry>
        </mxCell>
        <mxCell id="CO1nuGFgLBDNanquge2X-91" value="" style="endArrow=classic;html=1;rounded=0;exitX=0.5;exitY=1;exitDx=0;exitDy=0;" edge="1" parent="1" source="CO1nuGFgLBDNanquge2X-51">
          <mxGeometry width="50" height="50" relative="1" as="geometry">
            <mxPoint x="1480" y="660" as="sourcePoint" />
            <mxPoint x="2000" y="720" as="targetPoint" />
          </mxGeometry>
        </mxCell>
        <mxCell id="CO1nuGFgLBDNanquge2X-92" value="" style="endArrow=classic;html=1;rounded=0;" edge="1" parent="1">
          <mxGeometry width="50" height="50" relative="1" as="geometry">
            <mxPoint x="1470" y="650" as="sourcePoint" />
            <mxPoint x="1580" y="860" as="targetPoint" />
          </mxGeometry>
        </mxCell>
        <mxCell id="CO1nuGFgLBDNanquge2X-93" value="" style="endArrow=classic;html=1;rounded=0;" edge="1" parent="1">
          <mxGeometry width="50" height="50" relative="1" as="geometry">
            <mxPoint x="1470" y="650" as="sourcePoint" />
            <mxPoint x="1710" y="750" as="targetPoint" />
          </mxGeometry>
        </mxCell>
        <mxCell id="CO1nuGFgLBDNanquge2X-94" value="ADDRESS OF SENDER" style="ellipse;whiteSpace=wrap;html=1;fillColor=#1ba1e2;fontColor=#ffffff;strokeColor=#006EAF;" vertex="1" parent="1">
          <mxGeometry x="1410" y="1030" width="120" height="80" as="geometry" />
        </mxCell>
        <mxCell id="CO1nuGFgLBDNanquge2X-95" value="ADDRESS OF RECEIVER" style="ellipse;whiteSpace=wrap;html=1;fillColor=#1ba1e2;fontColor=#ffffff;strokeColor=#006EAF;" vertex="1" parent="1">
          <mxGeometry x="1520" y="860" width="120" height="80" as="geometry" />
        </mxCell>
        <mxCell id="CO1nuGFgLBDNanquge2X-96" value="PARCEL ID" style="ellipse;whiteSpace=wrap;html=1;fillColor=#1ba1e2;fontColor=#ffffff;strokeColor=#006EAF;" vertex="1" parent="1">
          <mxGeometry x="1710" y="720" width="120" height="80" as="geometry" />
        </mxCell>
        <mxCell id="CO1nuGFgLBDNanquge2X-97" value="BILL ITEMS" style="ellipse;whiteSpace=wrap;html=1;fillColor=#1ba1e2;fontColor=#ffffff;strokeColor=#006EAF;" vertex="1" parent="1">
          <mxGeometry x="1960" y="720" width="120" height="80" as="geometry" />
        </mxCell>
        <mxCell id="CO1nuGFgLBDNanquge2X-98" value="CHECK ITEM DETAILS" style="ellipse;whiteSpace=wrap;html=1;fillColor=#1ba1e2;fontColor=#ffffff;strokeColor=#006EAF;" vertex="1" parent="1">
          <mxGeometry x="1860" y="970" width="120" height="80" as="geometry" />
        </mxCell>
        <mxCell id="CO1nuGFgLBDNanquge2X-100" value="&amp;nbsp;Courier Management System" style="text;html=1;align=center;verticalAlign=middle;whiteSpace=wrap;rounded=0;fontStyle=1;fontSize=55;" vertex="1" parent="1">
          <mxGeometry x="440" y="-50" width="860" height="30" as="geometry" />
        </mxCell>
        <mxCell id="CO1nuGFgLBDNanquge2X-101" value="NAME- SHIKHA SINGH" style="text;html=1;align=center;verticalAlign=middle;whiteSpace=wrap;rounded=0;fontSize=38;" vertex="1" parent="1">
          <mxGeometry x="-610" width="470" height="30" as="geometry" />
        </mxCell>
        <mxCell id="CO1nuGFgLBDNanquge2X-103" value="ROLL NUMBER- 25" style="text;html=1;align=center;verticalAlign=middle;whiteSpace=wrap;rounded=0;fontSize=38;" vertex="1" parent="1">
          <mxGeometry x="-612" y="60" width="410" height="30" as="geometry" />
        </mxCell>
      </root>
    </mxGraphModel>
  </diagram>
</mxfile>
